<mxfile host="Electron" modified="2023-09-16T02:44:59.122Z" agent="Mozilla/5.0 (Windows NT 10.0; Win64; x64) AppleWebKit/537.36 (KHTML, like Gecko) draw.io/21.5.1 Chrome/112.0.5615.204 Electron/24.6.0 Safari/537.36" etag="30PqwNHLorF38JAUusgy" version="21.5.1" type="device">
  <diagram name="Page-1" id="mTQ3I0F9BoaIDthgH1G9">
    <mxGraphModel dx="1873" dy="764" grid="1" gridSize="10" guides="1" tooltips="1" connect="1" arrows="1" fold="1" page="1" pageScale="1" pageWidth="827" pageHeight="1169" math="0" shadow="0">
      <root>
        <mxCell id="0" />
        <mxCell id="1" parent="0" />
        <mxCell id="DJCiwVKDYzmprdbf6frD-18" value="Code Repository" style="fillColor=none;strokeColor=#000000;dashed=1;verticalAlign=bottom;fontStyle=1;fontColor=#000000;whiteSpace=wrap;html=1;fontSize=16;" vertex="1" parent="1">
          <mxGeometry x="140" y="130" width="180" height="410" as="geometry" />
        </mxCell>
        <mxCell id="DJCiwVKDYzmprdbf6frD-37" value="" style="fillColor=none;strokeColor=#147EBA;dashed=1;verticalAlign=top;fontStyle=0;fontColor=#147EBA;whiteSpace=wrap;html=1;" vertex="1" parent="1">
          <mxGeometry x="1060" y="270" width="150" height="240" as="geometry" />
        </mxCell>
        <mxCell id="DJCiwVKDYzmprdbf6frD-24" value="CI Servers" style="fillColor=none;strokeColor=#000000;dashed=1;verticalAlign=bottom;fontStyle=1;fontColor=#000000;whiteSpace=wrap;html=1;fontSize=16;" vertex="1" parent="1">
          <mxGeometry x="377" y="130" width="264" height="410" as="geometry" />
        </mxCell>
        <mxCell id="DJCiwVKDYzmprdbf6frD-1" value="AWS CodeCommit" style="sketch=0;points=[[0,0,0],[0.25,0,0],[0.5,0,0],[0.75,0,0],[1,0,0],[0,1,0],[0.25,1,0],[0.5,1,0],[0.75,1,0],[1,1,0],[0,0.25,0],[0,0.5,0],[0,0.75,0],[1,0.25,0],[1,0.5,0],[1,0.75,0]];outlineConnect=0;fontColor=#232F3E;gradientColor=#4D72F3;gradientDirection=north;fillColor=#3334B9;strokeColor=#ffffff;dashed=0;verticalLabelPosition=bottom;verticalAlign=top;align=center;html=1;fontSize=16;fontStyle=1;aspect=fixed;shape=mxgraph.aws4.resourceIcon;resIcon=mxgraph.aws4.codecommit;" vertex="1" parent="1">
          <mxGeometry x="191" y="172" width="78" height="78" as="geometry" />
        </mxCell>
        <mxCell id="DJCiwVKDYzmprdbf6frD-2" value="AWS CodeBuild" style="sketch=0;points=[[0,0,0],[0.25,0,0],[0.5,0,0],[0.75,0,0],[1,0,0],[0,1,0],[0.25,1,0],[0.5,1,0],[0.75,1,0],[1,1,0],[0,0.25,0],[0,0.5,0],[0,0.75,0],[1,0.25,0],[1,0.5,0],[1,0.75,0]];outlineConnect=0;fontColor=#232F3E;gradientColor=#4D72F3;gradientDirection=north;fillColor=#3334B9;strokeColor=#ffffff;dashed=0;verticalLabelPosition=bottom;verticalAlign=top;align=center;html=1;fontSize=16;fontStyle=1;aspect=fixed;shape=mxgraph.aws4.resourceIcon;resIcon=mxgraph.aws4.codebuild;" vertex="1" parent="1">
          <mxGeometry x="470" y="172" width="78" height="78" as="geometry" />
        </mxCell>
        <mxCell id="DJCiwVKDYzmprdbf6frD-4" value="Elastic Beanstalk" style="sketch=0;points=[[0,0,0],[0.25,0,0],[0.5,0,0],[0.75,0,0],[1,0,0],[0,1,0],[0.25,1,0],[0.5,1,0],[0.75,1,0],[1,1,0],[0,0.25,0],[0,0.5,0],[0,0.75,0],[1,0.25,0],[1,0.5,0],[1,0.75,0]];outlineConnect=0;fontColor=#232F3E;gradientColor=#F78E04;gradientDirection=north;fillColor=#D05C17;strokeColor=#ffffff;dashed=0;verticalLabelPosition=bottom;verticalAlign=top;align=center;html=1;fontSize=12;fontStyle=0;aspect=fixed;shape=mxgraph.aws4.resourceIcon;resIcon=mxgraph.aws4.elastic_beanstalk;" vertex="1" parent="1">
          <mxGeometry x="827" y="172" width="78" height="78" as="geometry" />
        </mxCell>
        <mxCell id="DJCiwVKDYzmprdbf6frD-14" style="edgeStyle=orthogonalEdgeStyle;rounded=0;orthogonalLoop=1;jettySize=auto;html=1;" edge="1" parent="1" source="DJCiwVKDYzmprdbf6frD-5" target="DJCiwVKDYzmprdbf6frD-7">
          <mxGeometry relative="1" as="geometry" />
        </mxCell>
        <mxCell id="DJCiwVKDYzmprdbf6frD-5" value="Code" style="sketch=0;outlineConnect=0;fontColor=#232F3E;gradientColor=none;fillColor=#232F3D;strokeColor=none;dashed=0;verticalLabelPosition=bottom;verticalAlign=top;align=center;html=1;fontSize=12;fontStyle=0;aspect=fixed;pointerEvents=1;shape=mxgraph.aws4.source_code;" vertex="1" parent="1">
          <mxGeometry x="211.73" y="288" width="36.54" height="50" as="geometry" />
        </mxCell>
        <mxCell id="DJCiwVKDYzmprdbf6frD-15" style="edgeStyle=orthogonalEdgeStyle;rounded=0;orthogonalLoop=1;jettySize=auto;html=1;" edge="1" parent="1" source="DJCiwVKDYzmprdbf6frD-7" target="DJCiwVKDYzmprdbf6frD-8">
          <mxGeometry relative="1" as="geometry" />
        </mxCell>
        <mxCell id="DJCiwVKDYzmprdbf6frD-7" value="Build" style="sketch=0;outlineConnect=0;fontColor=#232F3E;gradientColor=none;fillColor=#232F3D;strokeColor=none;dashed=0;verticalLabelPosition=bottom;verticalAlign=top;align=center;html=1;fontSize=12;fontStyle=0;aspect=fixed;pointerEvents=1;shape=mxgraph.aws4.gear;" vertex="1" parent="1">
          <mxGeometry x="412" y="287" width="52" height="52" as="geometry" />
        </mxCell>
        <mxCell id="DJCiwVKDYzmprdbf6frD-16" style="edgeStyle=orthogonalEdgeStyle;rounded=0;orthogonalLoop=1;jettySize=auto;html=1;entryX=0;entryY=0.5;entryDx=0;entryDy=0;" edge="1" parent="1" source="DJCiwVKDYzmprdbf6frD-8" target="DJCiwVKDYzmprdbf6frD-11">
          <mxGeometry relative="1" as="geometry" />
        </mxCell>
        <mxCell id="DJCiwVKDYzmprdbf6frD-8" value="Test" style="sketch=0;outlineConnect=0;fontColor=#232F3E;gradientColor=none;fillColor=#B0084D;strokeColor=none;dashed=0;verticalLabelPosition=bottom;verticalAlign=top;align=center;html=1;fontSize=12;fontStyle=0;aspect=fixed;pointerEvents=1;shape=mxgraph.aws4.checklist;" vertex="1" parent="1">
          <mxGeometry x="568" y="287" width="44" height="52" as="geometry" />
        </mxCell>
        <mxCell id="DJCiwVKDYzmprdbf6frD-17" style="edgeStyle=orthogonalEdgeStyle;rounded=0;orthogonalLoop=1;jettySize=auto;html=1;" edge="1" parent="1" source="DJCiwVKDYzmprdbf6frD-11" target="DJCiwVKDYzmprdbf6frD-13">
          <mxGeometry relative="1" as="geometry" />
        </mxCell>
        <mxCell id="DJCiwVKDYzmprdbf6frD-11" value="Deploy" style="shape=image;html=1;verticalAlign=top;verticalLabelPosition=bottom;labelBackgroundColor=#ffffff;imageAspect=0;aspect=fixed;image=https://cdn0.iconfinder.com/data/icons/phosphor-regular-vol-4/256/rocket-launch-128.png;imageBorder=none;imageBackground=none;strokeWidth=1;" vertex="1" parent="1">
          <mxGeometry x="750" y="282" width="62" height="62" as="geometry" />
        </mxCell>
        <mxCell id="DJCiwVKDYzmprdbf6frD-13" value="Provision" style="sketch=0;pointerEvents=1;shadow=0;dashed=0;html=1;strokeColor=none;fillColor=#505050;labelPosition=center;verticalLabelPosition=bottom;verticalAlign=top;outlineConnect=0;align=center;shape=mxgraph.office.concepts.install;" vertex="1" parent="1">
          <mxGeometry x="920" y="287" width="45" height="52" as="geometry" />
        </mxCell>
        <mxCell id="DJCiwVKDYzmprdbf6frD-19" value="GitHub" style="verticalLabelPosition=bottom;html=1;verticalAlign=top;align=center;strokeColor=none;fillColor=#000000;shape=mxgraph.azure.github_code;pointerEvents=1;" vertex="1" parent="1">
          <mxGeometry x="245" y="400" width="50" height="50" as="geometry" />
        </mxCell>
        <mxCell id="DJCiwVKDYzmprdbf6frD-21" value="Bitbucket" style="image;html=1;image=img/lib/atlassian/Bitbucket_Logo.svg;" vertex="1" parent="1">
          <mxGeometry x="165" y="400" width="57" height="50" as="geometry" />
        </mxCell>
        <mxCell id="DJCiwVKDYzmprdbf6frD-23" value="any 3rd party" style="text;html=1;align=center;verticalAlign=middle;resizable=0;points=[];autosize=1;strokeColor=none;fillColor=none;" vertex="1" parent="1">
          <mxGeometry x="185" y="480" width="90" height="30" as="geometry" />
        </mxCell>
        <mxCell id="DJCiwVKDYzmprdbf6frD-27" value="any 3rd party" style="text;html=1;align=center;verticalAlign=middle;resizable=0;points=[];autosize=1;strokeColor=none;fillColor=none;" vertex="1" parent="1">
          <mxGeometry x="464" y="480" width="90" height="30" as="geometry" />
        </mxCell>
        <mxCell id="DJCiwVKDYzmprdbf6frD-29" value="" style="shape=image;verticalLabelPosition=bottom;labelBackgroundColor=default;verticalAlign=top;aspect=fixed;imageAspect=0;image=https://logos-download.com/wp-content/uploads/2016/10/Jenkins_logo_wordmark.png;" vertex="1" parent="1">
          <mxGeometry x="415.81" y="400" width="196.19" height="60" as="geometry" />
        </mxCell>
        <mxCell id="DJCiwVKDYzmprdbf6frD-30" value="Deploy" style="fillColor=none;strokeColor=#000000;dashed=1;verticalAlign=bottom;fontStyle=1;fontColor=#000000;whiteSpace=wrap;html=1;fontSize=16;" vertex="1" parent="1">
          <mxGeometry x="720" y="130" width="510" height="410" as="geometry" />
        </mxCell>
        <mxCell id="DJCiwVKDYzmprdbf6frD-41" style="edgeStyle=orthogonalEdgeStyle;rounded=0;orthogonalLoop=1;jettySize=auto;html=1;entryX=0;entryY=0.5;entryDx=0;entryDy=0;entryPerimeter=0;" edge="1" parent="1" source="DJCiwVKDYzmprdbf6frD-31" target="DJCiwVKDYzmprdbf6frD-40">
          <mxGeometry relative="1" as="geometry" />
        </mxCell>
        <mxCell id="DJCiwVKDYzmprdbf6frD-31" value="AWS CodeDeploy" style="sketch=0;points=[[0,0,0],[0.25,0,0],[0.5,0,0],[0.75,0,0],[1,0,0],[0,1,0],[0.25,1,0],[0.5,1,0],[0.75,1,0],[1,1,0],[0,0.25,0],[0,0.5,0],[0,0.75,0],[1,0.25,0],[1,0.5,0],[1,0.75,0]];outlineConnect=0;fontColor=#232F3E;gradientColor=#4D72F3;gradientDirection=north;fillColor=#3334B9;strokeColor=#ffffff;dashed=0;verticalLabelPosition=bottom;verticalAlign=top;align=center;html=1;fontSize=16;fontStyle=1;aspect=fixed;shape=mxgraph.aws4.resourceIcon;resIcon=mxgraph.aws4.codedeploy;" vertex="1" parent="1">
          <mxGeometry x="813" y="391" width="78" height="78" as="geometry" />
        </mxCell>
        <mxCell id="DJCiwVKDYzmprdbf6frD-32" value="EC2" style="sketch=0;points=[[0,0,0],[0.25,0,0],[0.5,0,0],[0.75,0,0],[1,0,0],[0,1,0],[0.25,1,0],[0.5,1,0],[0.75,1,0],[1,1,0],[0,0.25,0],[0,0.5,0],[0,0.75,0],[1,0.25,0],[1,0.5,0],[1,0.75,0]];outlineConnect=0;fontColor=#232F3E;gradientColor=#F78E04;gradientDirection=north;fillColor=#D05C17;strokeColor=#ffffff;dashed=0;verticalLabelPosition=middle;verticalAlign=middle;align=right;html=1;fontSize=12;fontStyle=0;aspect=fixed;shape=mxgraph.aws4.resourceIcon;resIcon=mxgraph.aws4.ec2;labelPosition=left;spacingRight=5;" vertex="1" parent="1">
          <mxGeometry x="1157" y="340" width="40" height="40" as="geometry" />
        </mxCell>
        <mxCell id="DJCiwVKDYzmprdbf6frD-34" value="AWS Lambda" style="sketch=0;points=[[0,0,0],[0.25,0,0],[0.5,0,0],[0.75,0,0],[1,0,0],[0,1,0],[0.25,1,0],[0.5,1,0],[0.75,1,0],[1,1,0],[0,0.25,0],[0,0.5,0],[0,0.75,0],[1,0.25,0],[1,0.5,0],[1,0.75,0]];outlineConnect=0;fontColor=#232F3E;gradientColor=#F78E04;gradientDirection=north;fillColor=#D05C17;strokeColor=#ffffff;dashed=0;verticalLabelPosition=middle;verticalAlign=middle;align=right;html=1;fontSize=12;fontStyle=0;aspect=fixed;shape=mxgraph.aws4.resourceIcon;resIcon=mxgraph.aws4.lambda;labelPosition=left;spacingRight=5;" vertex="1" parent="1">
          <mxGeometry x="1151.43" y="450" width="40" height="40" as="geometry" />
        </mxCell>
        <mxCell id="DJCiwVKDYzmprdbf6frD-35" value="Amazon ECS" style="sketch=0;points=[[0,0,0],[0.25,0,0],[0.5,0,0],[0.75,0,0],[1,0,0],[0,1,0],[0.25,1,0],[0.5,1,0],[0.75,1,0],[1,1,0],[0,0.25,0],[0,0.5,0],[0,0.75,0],[1,0.25,0],[1,0.5,0],[1,0.75,0]];outlineConnect=0;fontColor=#232F3E;gradientColor=#F78E04;gradientDirection=north;fillColor=#D05C17;strokeColor=#ffffff;dashed=0;verticalLabelPosition=middle;verticalAlign=middle;align=right;html=1;fontSize=12;fontStyle=0;aspect=fixed;shape=mxgraph.aws4.resourceIcon;resIcon=mxgraph.aws4.ecs;labelPosition=left;spacingRight=5;" vertex="1" parent="1">
          <mxGeometry x="1157" y="290" width="40" height="40" as="geometry" />
        </mxCell>
        <mxCell id="DJCiwVKDYzmprdbf6frD-36" value="On-premise" style="sketch=0;outlineConnect=0;fontColor=#232F3E;gradientColor=none;fillColor=#232F3D;strokeColor=none;dashed=0;verticalLabelPosition=middle;verticalAlign=middle;align=right;html=1;fontSize=12;fontStyle=0;aspect=fixed;pointerEvents=1;shape=mxgraph.aws4.traditional_server;labelPosition=left;spacingRight=5;" vertex="1" parent="1">
          <mxGeometry x="1162.58" y="390" width="28.85" height="50" as="geometry" />
        </mxCell>
        <mxCell id="DJCiwVKDYzmprdbf6frD-38" value="" style="edgeStyle=none;orthogonalLoop=1;jettySize=auto;html=1;rounded=0;startArrow=baseDash;startFill=0;endArrow=baseDash;endFill=0;strokeWidth=6;endSize=50;startSize=50;" edge="1" parent="1">
          <mxGeometry width="100" relative="1" as="geometry">
            <mxPoint x="130" y="557" as="sourcePoint" />
            <mxPoint x="1241" y="557" as="targetPoint" />
            <Array as="points" />
          </mxGeometry>
        </mxCell>
        <mxCell id="DJCiwVKDYzmprdbf6frD-39" value="AWS CodePipeline" style="sketch=0;points=[[0,0,0],[0.25,0,0],[0.5,0,0],[0.75,0,0],[1,0,0],[0,1,0],[0.25,1,0],[0.5,1,0],[0.75,1,0],[1,1,0],[0,0.25,0],[0,0.5,0],[0,0.75,0],[1,0.25,0],[1,0.5,0],[1,0.75,0]];outlineConnect=0;fontColor=#232F3E;gradientColor=#4D72F3;gradientDirection=north;fillColor=#3334B9;strokeColor=#ffffff;dashed=0;verticalLabelPosition=bottom;verticalAlign=top;align=center;html=1;fontSize=16;fontStyle=1;aspect=fixed;shape=mxgraph.aws4.resourceIcon;resIcon=mxgraph.aws4.codepipeline;" vertex="1" parent="1">
          <mxGeometry x="642" y="570" width="78" height="78" as="geometry" />
        </mxCell>
        <mxCell id="DJCiwVKDYzmprdbf6frD-40" value="" style="sketch=0;points=[[0,0,0],[0.25,0,0],[0.5,0,0],[0.75,0,0],[1,0,0],[0,1,0],[0.25,1,0],[0.5,1,0],[0.75,1,0],[1,1,0],[0,0.25,0],[0,0.5,0],[0,0.75,0],[1,0.25,0],[1,0.5,0],[1,0.75,0]];points=[[0,0,0],[0.25,0,0],[0.5,0,0],[0.75,0,0],[1,0,0],[0,1,0],[0.25,1,0],[0.5,1,0],[0.75,1,0],[1,1,0],[0,0.25,0],[0,0.5,0],[0,0.75,0],[1,0.25,0],[1,0.5,0],[1,0.75,0]];outlineConnect=0;fontColor=#232F3E;gradientColor=#F34482;gradientDirection=north;fillColor=#BC1356;strokeColor=#ffffff;dashed=0;verticalLabelPosition=bottom;verticalAlign=top;align=center;html=1;fontSize=12;fontStyle=0;aspect=fixed;shape=mxgraph.aws4.resourceIcon;resIcon=mxgraph.aws4.cloudformation;" vertex="1" parent="1">
          <mxGeometry x="930" y="405" width="50" height="50" as="geometry" />
        </mxCell>
      </root>
    </mxGraphModel>
  </diagram>
</mxfile>
